<svg width="46" height="47" viewBox="0 0 46 47" fill="none" xmlns="http://www.w3.org/2000/svg">
    <ellipse cx="23" cy="23.5" rx="23" ry="23.5" fill="#3A3A3A"></ellipse>
    <path d="M16.7832 14H30.2168C31.7513 14 33 15.2487 33 16.7832V30.2168C33 31.7513 31.7513 33 30.2168 33H16.7832C15.2487 33 14 31.7513 14 30.2168V16.7832C14 15.2487 15.2487 14 16.7832 14ZM23.4629 28.4727C26.2254 28.4727 28.4727 26.2254 28.4727 23.4629C28.4727 20.7004 26.2254 18.4531 23.4629 18.4531C20.7004 18.4531 18.4531 20.7004 18.4531 23.4629C18.4531 26.2254 20.7004 28.4727 23.4629 28.4727ZM17.8965 19.5664C18.8173 19.5664 19.5664 18.8173 19.5664 17.8965C19.5664 16.9757 18.8173 16.2266 17.8965 16.2266C16.9757 16.2266 16.2266 16.9757 16.2266 17.8965C16.2266 18.8173 16.9757 19.5664 17.8965 19.5664Z" fill="#929292"></path>
    <path d="M17.8965 17.3398C18.2037 17.3398 18.4531 17.5893 18.4531 17.8965C18.4531 18.2037 18.2037 18.4531 17.8965 18.4531C17.5893 18.4531 17.3398 18.2037 17.3398 17.8965C17.3398 17.5893 17.5893 17.3398 17.8965 17.3398Z" fill="#929292"></path>
    <path d="M23.4629 19.5664C25.6112 19.5664 27.3594 21.3146 27.3594 23.4629C27.3594 25.6112 25.6112 27.3594 23.4629 27.3594C21.3146 27.3594 19.5664 25.6112 19.5664 23.4629C19.5664 21.3146 21.3146 19.5664 23.4629 19.5664Z" fill="#929292"></path>
</svg>